<svg aria-hidden="true" style="position: absolute; width: 0; height: 0; overflow: hidden;" version="1.1" xmlns="http://www.w3.org/2000/svg" xmlns:xlink="http://www.w3.org/1999/xlink">
<defs>
<symbol id="icon-dropdown" viewBox="0 0 46 32">
<path fill="none" stroke="#fff" style="stroke: var(--color1, #fff)" stroke-linejoin="miter" stroke-linecap="round" stroke-miterlimit="4" stroke-width="6.4" d="M4.571 6.983l18.287 18.286 18.284-18.286"></path>
</symbol>
<symbol id="icon-facebook" viewBox="0 0 32 32">
<path fill="#fff" style="fill: var(--color1, #fff)" d="M17.527 29.232h-6.080v-13.714h-3.039v-4.728h3.039v-2.837c0-3.855 1.716-6.15 6.588-6.15h4.057v4.728h-2.534c-1.899 0-2.024 0.662-2.024 1.895l-0.007 2.365h4.595l-0.538 4.728h-4.057v13.714z"></path>
</symbol>
<symbol id="icon-scroll-down" viewBox="0 0 67 32">
<path fill="none" stroke="#fff" style="stroke: var(--color1, #fff)" stroke-linejoin="round" stroke-linecap="round" stroke-miterlimit="4" stroke-width="5.8182" d="M63.432 5.201h-58.182l28.765 23.273 29.417-23.273z"></path>
</symbol>
<symbol id="icon-steam" viewBox="0 0 31 32">
<path fill="#ffb548" style="fill: var(--color2, #ffb548)" d="M15.484 31.512c-6.921 0-12.782-4.541-14.765-10.806 0.763 0.431 3.581 1.603 3.735 1.652l2.071 0.686c0.931 2.763 3.932 4.243 6.695 3.309 1.802-0.606 3.136-2.132 3.499-3.995l5.954-4.248c3.504-0.333 6.073-3.434 5.744-6.931-0.309-3.235-3.012-5.719-6.272-5.754-3.489 0.005-6.327 2.807-6.372 6.286l-3.574 4.358c-1.195-0.174-2.409 0.085-3.425 0.725l-3.933-1.779c-0.164-0.075-3.24-1.197-3.389-1.103-0.055 0.035-0.15 0.063-0.251 0.091-0.183 0.052-0.384 0.109-0.384 0.228l0.412 6.475c-0.263-0.077-0.444-0.123-0.556-0.143-0.438-1.434-0.674-2.956-0.674-4.533 0-8.552 6.932-15.484 15.484-15.484s15.484 6.932 15.484 15.484c0 8.551-6.932 15.484-15.484 15.484zM25.332 11.784c0 1.756-1.426 3.18-3.186 3.18s-3.186-1.424-3.186-3.18 1.426-3.18 3.186-3.18c1.76 0 3.186 1.424 3.186 3.18zM24.272 11.784c0 1.172-0.952 2.122-2.126 2.122s-2.126-0.95-2.126-2.122c0-1.172 0.952-2.122 2.126-2.122s2.126 0.95 2.126 2.122zM10.145 24.187c0.428 0.209 0.901 0.318 1.379 0.318 0.363 0 0.717-0.060 1.065-0.174 0.801-0.278 1.454-0.86 1.822-1.62 0.767-1.585 0.1-3.483-1.483-4.248-0.269-0.129-0.582-0.020-0.712 0.243-0.129 0.268-0.020 0.581 0.244 0.711 0.035 0.015 0.070 0.030 0.105 0.050 1.045 0.537 1.448 1.814 0.911 2.857s-1.822 1.446-2.862 0.909c-0.269-0.129-0.582-0.020-0.712 0.243-0.129 0.268-0.020 0.581 0.244 0.711z"></path>
</symbol>
<symbol id="icon-switch" viewBox="0 0 15 32">
<path fill="none" stroke="#fff" style="stroke: var(--color1, #fff)" stroke-linejoin="round" stroke-linecap="round" stroke-miterlimit="4" stroke-width="2.8333" d="M1.684 1.575v28.632l11.789-14.155-11.789-14.476z"></path>
</symbol>
<symbol id="icon-twitch" viewBox="0 0 32 32">
<path fill="#fff" style="fill: var(--color1, #fff)" d="M31.265 21.35v-19.547h-27.090l-3.386 3.468v18.286h8.466v5.675h3.725l4.064-4.099h10.159l4.063-3.783zM11.286 21.035h-5.418c-0.372 0-0.677-0.284-0.677-0.631v-15.448c0-0.347 0.305-0.631 0.677-0.631h21.672c0.373 0 0.677 0.284 0.677 0.631v11.98c0 0.173-0.068 0.331-0.195 0.449l-3.725 3.468c-0.127 0.118-0.305 0.181-0.482 0.181h-6.222l-5.249 3.358c-0.11 0.071-0.245 0.11-0.381 0.11-0.11 0-0.212-0.024-0.313-0.071-0.229-0.11-0.364-0.323-0.364-0.56v-2.837z"></path>
<path fill="#fff" style="fill: var(--color1, #fff)" d="M21.445 15.518v-6.305h-2.709v6.305h2.709zM14.673 15.518v-6.305h-2.709v6.305h2.709z"></path>
</symbol>
<symbol id="icon-twitter" viewBox="0 0 32 32">
<path fill="#fff" style="fill: var(--color1, #fff)" d="M32.789 6.215c-1.177 0.491-2.443 0.818-3.77 0.968 1.356-0.762 2.396-1.969 2.886-3.404-1.27 0.704-2.675 1.216-4.171 1.493-1.196-1.198-2.903-1.944-4.791-1.944-3.625 0-6.567 2.757-6.567 6.155 0 0.483 0.058 0.954 0.171 1.403-5.456-0.258-10.294-2.708-13.532-6.43-0.565 0.91-0.888 1.966-0.888 3.095 0 2.133 1.159 4.020 2.92 5.123-1.075-0.034-2.087-0.309-2.973-0.771 0 0.027 0 0.050 0 0.079 0 2.982 2.262 5.469 5.266 6.034-0.55 0.14-1.132 0.213-1.729 0.213-0.423 0-0.835-0.037-1.235-0.107 0.835 2.443 3.26 4.224 6.132 4.274-2.247 1.65-5.077 2.633-8.154 2.633-0.53 0-1.053-0.029-1.566-0.085 2.905 1.745 6.356 2.766 10.064 2.766 12.076 0 18.679-9.381 18.679-17.513 0-0.268-0.008-0.532-0.020-0.797 1.283-0.869 2.396-1.952 3.276-3.185z"></path>
</symbol>
<symbol id="icon-twitter-mes" viewBox="0 0 31 32">
<path fill="#fff" style="fill: var(--color1, #fff)" opacity="0.3" d="M23.771 11.454c-0.616 0.261-1.27 0.433-1.939 0.509 0.696-0.4 1.232-1.033 1.484-1.788-0.663 0.376-1.388 0.642-2.144 0.784-0.638-0.652-1.531-1.022-2.464-1.020-1.864 0-3.377 1.446-3.377 3.231 0 0.254 0.030 0.501 0.088 0.737-2.806-0.135-5.294-1.421-6.959-3.376-0.291 0.477-0.457 1.032-0.457 1.624 0 1.12 0.596 2.11 1.502 2.689-0.536-0.016-1.061-0.154-1.53-0.404v0.041c0 1.565 1.164 2.871 2.708 3.168-0.497 0.129-1.018 0.148-1.524 0.055 0.43 1.284 1.677 2.218 3.154 2.245-1.155 0.865-2.611 1.383-4.193 1.383-0.269-0-0.538-0.015-0.805-0.045 1.494 0.916 3.269 1.452 5.176 1.452 6.21 0 9.606-4.924 9.606-9.194 0-0.14 0-0.279-0.011-0.418 0.661-0.457 1.231-1.024 1.685-1.672h0.001z"></path>
</symbol>
<symbol id="icon-xbox" viewBox="0 0 31 32">
<path fill="#ffb548" style="fill: var(--color2, #ffb548)" d="M10.233 3.281c1.633 0.641 3.212 1.488 4.7 2.523 0.169 0.115 0.363 0.175 0.556 0.175s0.387-0.061 0.556-0.175c1.488-1.034 3.067-1.887 4.7-2.529 0.369-0.145 0.617-0.508 0.611-0.907 0-0.399-0.248-0.756-0.623-0.895-3.266-1.24-7.222-1.24-10.482 0-0.369 0.139-0.623 0.502-0.623 0.895s0.23 0.768 0.605 0.913z"></path>
<path fill="#ffb548" style="fill: var(--color2, #ffb548)" d="M24.26 3.287c-0.309-0.212-0.702-0.23-1.034-0.042-1.809 1.041-3.556 2.232-5.208 3.545-0.218 0.175-0.351 0.436-0.363 0.714s0.097 0.55 0.296 0.744c3.423 3.261 8.165 13.261 9.254 17.858-2.359-3.993-7.621-13.388-11.063-16.6-0.369-0.345-0.95-0.345-1.319 0-3.448 3.212-8.691 12.613-11.050 16.612 1.089-4.598 5.819-14.61 9.242-17.87 0.206-0.194 0.315-0.466 0.302-0.744s-0.145-0.538-0.363-0.714c-1.651-1.313-3.405-2.505-5.208-3.545-0.321-0.188-0.726-0.169-1.034 0.042-4.204 2.898-6.714 7.659-6.714 12.74 0 3.714 1.337 7.296 3.774 10.091 2.915 3.424 7.179 5.396 11.71 5.396s8.8-1.966 11.722-5.402c2.425-2.783 3.762-6.364 3.762-10.085 0-5.082-2.51-9.843-6.708-12.74z"></path>
</symbol>
<symbol id="icon-youtube" viewBox="0 0 32 32">
<path fill="#ff1313" style="fill: var(--color3, #ff1313)" d="M24.944 4.851h-17.827c-3.491 0-6.328 2.806-6.328 6.261v8.812c0 3.461 2.837 6.261 6.328 6.261h17.82c3.498 0 6.328-2.807 6.328-6.261v-8.812c0.007-3.454-2.83-6.261-6.321-6.261zM20.659 15.953l-8.338 3.932c-0.225 0.105-0.476-0.052-0.476-0.301v-8.112c0-0.249 0.264-0.406 0.483-0.294l8.338 4.18c0.251 0.124 0.245 0.478-0.007 0.595z"></path>
</symbol>
</defs>
</svg>
