<!-- Generated by IcoMoon.io -->
<svg version="1.1" xmlns="http://www.w3.org/2000/svg" width="31" height="32" viewBox="0 0 31 32">
<title>twitter-mes</title>
<path fill="#fff" opacity="0.3" d="M23.771 11.454c-0.616 0.261-1.27 0.433-1.939 0.509 0.696-0.4 1.232-1.033 1.484-1.788-0.663 0.376-1.388 0.642-2.144 0.784-0.638-0.652-1.531-1.022-2.464-1.020-1.864 0-3.377 1.446-3.377 3.231 0 0.254 0.030 0.501 0.088 0.737-2.806-0.135-5.294-1.421-6.959-3.376-0.291 0.477-0.457 1.032-0.457 1.624 0 1.12 0.596 2.11 1.502 2.689-0.536-0.016-1.061-0.154-1.53-0.404v0.041c0 1.565 1.164 2.871 2.708 3.168-0.497 0.129-1.018 0.148-1.524 0.055 0.43 1.284 1.677 2.218 3.154 2.245-1.155 0.865-2.611 1.383-4.193 1.383-0.269-0-0.538-0.015-0.805-0.045 1.494 0.916 3.269 1.452 5.176 1.452 6.21 0 9.606-4.924 9.606-9.194 0-0.14 0-0.279-0.011-0.418 0.661-0.457 1.231-1.024 1.685-1.672h0.001z"></path>
</svg>
