<!-- Generated by IcoMoon.io -->
<svg version="1.1" xmlns="http://www.w3.org/2000/svg" width="32" height="32" viewBox="0 0 32 32">
<title>twitch</title>
<path fill="#fff" d="M31.265 21.35v-19.547h-27.090l-3.386 3.468v18.286h8.466v5.675h3.725l4.064-4.099h10.159l4.063-3.783zM11.286 21.035h-5.418c-0.372 0-0.677-0.284-0.677-0.631v-15.448c0-0.347 0.305-0.631 0.677-0.631h21.672c0.373 0 0.677 0.284 0.677 0.631v11.98c0 0.173-0.068 0.331-0.195 0.449l-3.725 3.468c-0.127 0.118-0.305 0.181-0.482 0.181h-6.222l-5.249 3.358c-0.11 0.071-0.245 0.11-0.381 0.11-0.11 0-0.212-0.024-0.313-0.071-0.229-0.11-0.364-0.323-0.364-0.56v-2.837z"></path>
<path fill="#fff" d="M21.445 15.518v-6.305h-2.709v6.305h2.709zM14.673 15.518v-6.305h-2.709v6.305h2.709z"></path>
</svg>
