<!-- Generated by IcoMoon.io -->
<svg version="1.1" xmlns="http://www.w3.org/2000/svg" width="32" height="32" viewBox="0 0 32 32">
<title>twitter</title>
<path fill="#fff" d="M32.789 6.215c-1.177 0.491-2.443 0.818-3.77 0.968 1.356-0.762 2.396-1.969 2.886-3.404-1.27 0.704-2.675 1.216-4.171 1.493-1.196-1.198-2.903-1.944-4.791-1.944-3.625 0-6.567 2.757-6.567 6.155 0 0.483 0.058 0.954 0.171 1.403-5.456-0.258-10.294-2.708-13.532-6.43-0.565 0.91-0.888 1.966-0.888 3.095 0 2.133 1.159 4.020 2.92 5.123-1.075-0.034-2.087-0.309-2.973-0.771 0 0.027 0 0.050 0 0.079 0 2.982 2.262 5.469 5.266 6.034-0.55 0.14-1.132 0.213-1.729 0.213-0.423 0-0.835-0.037-1.235-0.107 0.835 2.443 3.26 4.224 6.132 4.274-2.247 1.65-5.077 2.633-8.154 2.633-0.53 0-1.053-0.029-1.566-0.085 2.905 1.745 6.356 2.766 10.064 2.766 12.076 0 18.679-9.381 18.679-17.513 0-0.268-0.008-0.532-0.020-0.797 1.283-0.869 2.396-1.952 3.276-3.185z"></path>
</svg>
