<!-- Generated by IcoMoon.io -->
<svg version="1.1" xmlns="http://www.w3.org/2000/svg" width="31" height="32" viewBox="0 0 31 32">
<title>xbox</title>
<path fill="#ffb548" d="M10.233 3.281c1.633 0.641 3.212 1.488 4.7 2.523 0.169 0.115 0.363 0.175 0.556 0.175s0.387-0.061 0.556-0.175c1.488-1.034 3.067-1.887 4.7-2.529 0.369-0.145 0.617-0.508 0.611-0.907 0-0.399-0.248-0.756-0.623-0.895-3.266-1.24-7.222-1.24-10.482 0-0.369 0.139-0.623 0.502-0.623 0.895s0.23 0.768 0.605 0.913z"></path>
<path fill="#ffb548" d="M24.26 3.287c-0.309-0.212-0.702-0.23-1.034-0.042-1.809 1.041-3.556 2.232-5.208 3.545-0.218 0.175-0.351 0.436-0.363 0.714s0.097 0.55 0.296 0.744c3.423 3.261 8.165 13.261 9.254 17.858-2.359-3.993-7.621-13.388-11.063-16.6-0.369-0.345-0.95-0.345-1.319 0-3.448 3.212-8.691 12.613-11.050 16.612 1.089-4.598 5.819-14.61 9.242-17.87 0.206-0.194 0.315-0.466 0.302-0.744s-0.145-0.538-0.363-0.714c-1.651-1.313-3.405-2.505-5.208-3.545-0.321-0.188-0.726-0.169-1.034 0.042-4.204 2.898-6.714 7.659-6.714 12.74 0 3.714 1.337 7.296 3.774 10.091 2.915 3.424 7.179 5.396 11.71 5.396s8.8-1.966 11.722-5.402c2.425-2.783 3.762-6.364 3.762-10.085 0-5.082-2.51-9.843-6.708-12.74z"></path>
</svg>
